<svg xmlns="http://www.w3.org/2000/svg" version="1.1" xmlns:xlink="http://www.w3.org/1999/xlink" xmlns:svgjs="http://svgjs.com/svgjs" width="14" height="14" x="0" y="0" viewBox="0 0 512 512" style="enable-background:new 0 0 512 512" xml:space="preserve"><g><g fill-rule="evenodd" clip-rule="evenodd"><path fill="#57C79E" d="M188.498 31h135.005C410.126 31 481 101.874 481 188.498v135.005C481 410.126 410.126 481 323.502 481H188.498C101.874 481 31 410.126 31 323.502V188.498C31 101.874 101.874 31 188.498 31z" data-original="#57c79e"></path><path fill="#6CF5C2" d="M402.067 459.86c-23.16 13.433-50.005 21.14-78.565 21.14H188.498C101.874 481 31 410.126 31 323.502V188.498c0-46.396 20.338-88.268 52.533-117.158 23.16-13.433 50.005-21.14 78.565-21.14h135.005c86.624 0 157.498 70.874 157.498 157.498v135.005c-.001 46.396-20.339 88.267-52.534 117.157z" data-original="#6cf5c2"></path><path fill="#2D2D30" d="M243.5 166.014c0-6.904 5.596-12.5 12.5-12.5s12.5 5.596 12.5 12.5V243.5h77.486c6.904 0 12.5 5.596 12.5 12.5s-5.596 12.5-12.5 12.5H268.5v77.486c0 6.904-5.596 12.5-12.5 12.5s-12.5-5.596-12.5-12.5V268.5h-77.486c-6.904 0-12.5-5.596-12.5-12.5s5.596-12.5 12.5-12.5H243.5z" data-original="#2d2d30"></path><path fill="#3E3E42" d="M243.5 166.014c0-2.752.89-5.295 2.397-7.36.932-.222 1.904-.34 2.903-.34 6.904 0 12.5 5.596 12.5 12.5V248.3h77.486c6.904 0 12.5 5.596 12.5 12.5 0 2.752-.89 5.295-2.397 7.36a12.51 12.51 0 0 1-2.903.34H261.3v82.286c0 2.752-.89 5.295-2.397 7.36a12.51 12.51 0 0 1-2.903.34c-6.904 0-12.5-5.596-12.5-12.5V268.5h-77.486c-6.904 0-12.5-5.596-12.5-12.5 0-2.752.89-5.295 2.397-7.36a12.51 12.51 0 0 1 2.903-.34H243.5v-82.286z" data-original="#3e3e42"></path></g></g></svg>