<svg xmlns="http://www.w3.org/2000/svg" version="1.1" xmlns:xlink="http://www.w3.org/1999/xlink" xmlns:svgjs="http://svgjs.com/svgjs" width="16" height="16" x="0" y="0" viewBox="0 0 24 24" style="enable-background:new 0 0 512 512" xml:space="preserve" class=""><g><g data-name="Layer 2"><path fill="#D81649" d="M17 5.75H7A.76.76 0 0 1 6.25 5V3A1.75 1.75 0 0 1 8 1.25h8A1.75 1.75 0 0 1 17.75 3v2a.76.76 0 0 1-.75.75zm-9.25-1.5h8.5V3a.25.25 0 0 0-.25-.25H8a.25.25 0 0 0-.25.25z" data-original="#d81649" class=""></path><path fill="#FE3155" d="M20.55 8.49a.76.76 0 0 0-.55-.24H4a.76.76 0 0 0-.55.24.78.78 0 0 0-.2.57l.86 11.15a2.76 2.76 0 0 0 2.74 2.54h10.3a2.76 2.76 0 0 0 2.74-2.54l.86-11.15a.78.78 0 0 0-.2-.57z" data-original="#fe3155"></path><path fill="#FFFFFF" d="M9.5 19.25a.76.76 0 0 1-.75-.75v-5a.75.75 0 0 1 1.5 0v5a.76.76 0 0 1-.75.75zM14.5 19.25a.76.76 0 0 1-.75-.75v-5a.75.75 0 0 1 1.5 0v5a.76.76 0 0 1-.75.75z" data-original="#ffffff"></path><path fill="#D81649" d="M20 4.25H3.5A2.25 2.25 0 0 0 1.25 6.5V8A1.76 1.76 0 0 0 3 9.75h18A1.76 1.76 0 0 0 22.75 8V7A2.75 2.75 0 0 0 20 4.25z" data-original="#d81649" class=""></path></g></g></svg>