<svg xmlns="http://www.w3.org/2000/svg" version="1.1" xmlns:xlink="http://www.w3.org/1999/xlink" xmlns:svgjs="http://svgjs.com/svgjs" width="16" height="16" x="0" y="0" viewBox="0 0 512 512" style="enable-background:new 0 0 512 512" xml:space="preserve" class=""><g><path fill="#30CB75" d="M271 272v-75h-30v75H60v105h30v-75h151v75h30v-75h151v75h30V272z" data-original="#406080" class="" opacity="1"></path><path fill="#30CB75" d="M271 197h-15v180h15v-75h151v75h30V272H271z" data-original="#293d66" class="" opacity="1"></path><path fill="#FFDF40" d="M75 512c-41.367 0-75-33.647-75-75s33.633-75 75-75 75 33.647 75 75-33.633 75-75 75zM437 512c-41.367 0-75-33.647-75-75s33.633-75 75-75 75 33.647 75 75-33.633 75-75 75zM256 512c-41.367 0-75-33.647-75-75s33.633-75 75-75 75 33.647 75 75-33.633 75-75 75z" data-original="#ffdf40" class=""></path><path fill="#68C9E0" d="m286 77-30 151.8-105-52.5V52.7z" data-original="#68c9e0"></path><path fill="#429ED9" d="M361 52.7v123.6l-105 52.5V107l22.5-57.15z" data-original="#429ed9"></path><g fill="#FFBE40"><path d="M331 437c0-41.353-33.633-75-75-75v150c41.367 0 75-33.647 75-75zM512 437c0-41.353-33.633-75-75-75v150c41.367 0 75-33.647 75-75zM150 437c0-41.353-33.633-75-75-75v150c41.367 0 75-33.647 75-75z" fill="#FFBE40" data-original="#ffbe40" class=""></path></g><path fill="#8DF4E6" d="M361 52.7 256 107 151 52.7 256 0z" data-original="#8df4e6" class=""></path><path fill="#68C9E0" d="M361 52.7 256 0v107z" data-original="#68c9e0"></path></g></svg>