<svg xmlns="http://www.w3.org/2000/svg" version="1.1" xmlns:xlink="http://www.w3.org/1999/xlink" xmlns:svgjs="http://svgjs.com/svgjs" width="16" height="16" x="0" y="0" viewBox="0 0 512 512" style="enable-background:new 0 0 512 512" xml:space="preserve" class=""><g><path d="M120 339.226V496.99c0 14.374 18.38 20.499 26.997 8.994l77.065-102.729 23.492-12.037L501.919 31.57l4.731-27.966-41.329 22.839-345.405 299.845.084 12.938z" style="" fill="#FE9923" data-original="#fe9923" class=""></path><path d="M491.237 1.196C490.56 1.467 8.933 243.282 8.279 243.61c-10.503 5.251-11.149 20.024-1.157 26.191l112.866 69.463L506.638 3.642c-3.931-3.406-9.576-4.86-15.401-2.446z" style="" fill="#FEDB41" data-original="#fedb41" class=""></path><path d="M507.165 4.34c-.216-.211-.287-.538-.515-.736l-2.935 4.16-279.653 395.49 173.071 106.509c9.014 5.541 20.68.258 22.603-10.005l92.021-481.989c.978-5.087-1.084-10.014-4.592-13.429z" style="" fill="#FFCC33" data-original="#ffcc33" class=""></path></g></svg>