<svg xmlns="http://www.w3.org/2000/svg" version="1.1" xmlns:xlink="http://www.w3.org/1999/xlink" xmlns:svgjs="http://svgjs.com/svgjs" width="20" height="20" x="0" y="0" viewBox="0 0 64 64" style="enable-background:new 0 0 512 512" xml:space="preserve"><g><path fill="#0078FF" d="m29.93 3.92-4.42 21.11c-.09.44-.3.81-.6 1.11-.42.42-1 .66-1.63.63-1-.04-1.85-.78-2.04-1.76l-.78-3.92-3.13 3.13c-2.01 2.01-3.62 4.4-4.58 7.08-2.13 5.93-1.33 15.09 8.89 22.54.76.54 1.19 1.12 1.47 1.62.29.5.33 1.04.17 1.52-.06.24-.17.46-.33.65 0 .02-.01.03-.04.05-.32.41-.82.7-1.42.74-2.38.15-5.3-1.16-7.65-2.5-2.69-1.55-5.06-3.66-6.96-6.13-17.2-22.48 3.27-39.01 3.27-39.01l-3.91-.77c-.44-.09-.83-.3-1.13-.6a2.17 2.17 0 0 1-.63-1.44c-.05-1.07.68-2.02 1.73-2.24l21.12-4.41c.72-.15 1.48.07 2 .59l.07.07c.48.53.67 1.24.53 1.94z" data-original="#0078ff"></path><path fill="#0C63C4" d="m29.93 3.92-4.42 21.11c-.09.44-.3.81-.6 1.11-.42.42-1 .66-1.63.63-1-.04-1.85-.78-2.04-1.76l-.78-3.92-3.13 3.13c-2.01 2.01-3.62 4.4-4.58 7.08-2.13 5.93-1.33 15.09 8.89 22.54.76.54 1.19 1.12 1.47 1.62.29.5.33 1.04.17 1.52l-.33.65-.03.06s-.01 0-.01-.01c-33.43-20.79-9.37-46.66 6.49-55.7.48.53.67 1.24.53 1.94z" data-original="#0c63c4"></path><path fill="#0078FF" d="m34.07 60.08 4.42-21.11c.09-.44.3-.81.6-1.11.42-.42 1-.66 1.63-.63 1 .04 1.85.78 2.04 1.76l.78 3.92 3.13-3.13c2.01-2.01 3.62-4.4 4.58-7.08 2.13-5.93 1.33-15.09-8.89-22.54a4.847 4.847 0 0 1-1.47-1.62c-.29-.5-.33-1.04-.17-1.52.06-.24.17-.46.33-.65 0-.02.01-.03.04-.05.32-.41.82-.7 1.42-.74 2.38-.15 5.3 1.16 7.65 2.5 2.69 1.55 5.06 3.66 6.96 6.13 17.2 22.48-3.27 39.01-3.27 39.01l3.91.77c.44.09.83.3 1.13.6.37.37.61.89.63 1.44.05 1.07-.68 2.02-1.73 2.24l-21.12 4.41c-.72.15-1.48-.07-2-.59l-.07-.07c-.48-.53-.67-1.24-.53-1.94z" data-original="#0078ff"></path><path fill="#0C63C4" d="m34.07 60.08 4.42-21.11c.09-.44.3-.81.6-1.11.42-.42 1-.66 1.63-.63 1 .04 1.85.78 2.04 1.76l.78 3.92 3.13-3.13c2.01-2.01 3.62-4.4 4.58-7.08 2.13-5.93 1.33-15.09-8.89-22.54a4.847 4.847 0 0 1-1.47-1.62c-.29-.5-.33-1.04-.17-1.52l.33-.65.03-.06s.01 0 .01.01c33.43 20.79 9.37 46.66-6.49 55.7-.48-.53-.67-1.24-.53-1.94z" data-original="#0c63c4"></path></g></svg>