<svg xmlns="http://www.w3.org/2000/svg" version="1.1" xmlns:xlink="http://www.w3.org/1999/xlink" xmlns:svgjs="http://svgjs.com/svgjs" width="16" height="16" x="0" y="0" viewBox="0 0 512 512" style="enable-background:new 0 0 512 512" xml:space="preserve" class=""><g><path fill="#4381E7" d="M304 512h-96c-17.68 0-32-14.32-32-32V336H32c-17.68 0-32-14.32-32-32v-96c0-17.68 14.32-32 32-32h144V32c0-17.68 14.32-32 32-32h96c17.68 0 32 14.32 32 32v144h144c17.68 0 32 14.32 32 32v96c0 17.68-14.32 32-32 32H336v144c0 17.68-14.32 32-32 32zm0 0" data-original="#48c8ef" opacity="1" class=""></path></g></svg>