<svg xmlns="http://www.w3.org/2000/svg" version="1.1" xmlns:xlink="http://www.w3.org/1999/xlink" xmlns:svgjs="http://svgjs.com/svgjs" width="16" height="16" x="0" y="0" viewBox="0 0 32 32" style="enable-background:new 0 0 512 512" xml:space="preserve" class=""><defs><linearGradient id="a" x1="5.382" x2="27.27" y1="27.1" y2="3.148" gradientUnits="userSpaceOnUse"><stop offset="0" stop-color="#00a1e2"></stop><stop offset="1" stop-color="#00e0a5"></stop></linearGradient></defs><g><linearGradient id="a" x1="5.382" x2="27.27" y1="27.1" y2="3.148" gradientUnits="userSpaceOnUse"><stop offset="0" stop-color="#00a1e2"></stop><stop offset="1" stop-color="#00e0a5"></stop></linearGradient><path fill="url(&quot;#a&quot;)" d="M30.707 1.293a1 1 0 0 0-1.073-.224l-28 11a1 1 0 0 0-.164 1.779l8 5a1 1 0 0 0 .977.047l5.317-2.659-2.659 5.317a1 1 0 0 0 .047.977l5 8A1 1 0 0 0 19 31h.092a1 1 0 0 0 .839-.631l11-28a1 1 0 0 0-.224-1.076z" data-original="url(#a)" class=""></path></g></svg>